<?xml version="1.0" encoding="utf-8" ?>
<svg baseProfile="full" height="1024" version="1.1" width="1024" xmlns="http://www.w3.org/2000/svg" xmlns:ev="http://www.w3.org/2001/xml-events" xmlns:xlink="http://www.w3.org/1999/xlink"><defs /><polygon clip-path="url(#border_clip)" fill="#0a0a2a" fill-rule="evenodd" points="0.5,1024.5 1024.5,1024.5 1024.5,0.5 0.5000000000001137,0.4999999999998863 0.4999999999998863,1024.5" stroke-width="0" /><polyline clip-path="url(#border_clip)" fill="none" points="0.5,1024.5 1024.5,1024.5 1024.5,0.5 0.5000000000001137,0.4999999999998863 0.4999999999998863,1024.5" stroke="#0a0a2a" stroke-linecap="round" stroke-width="1" /><polygon clip-path="url(#border_clip)" fill="#ffffff" fill-rule="evenodd" points="728.5,308.5 733.5,308.5 729.4549150281252,311.43892626146237 731.0,306.68364367998663 732.5450849718748,311.43892626146237 728.5,308.5" stroke-width="0" /><polyline clip-path="url(#border_clip)" fill="none" points="728.5,308.5 733.5,308.5 729.4549150281252,311.43892626146237 731.0,306.68364367998663 732.5450849718748,311.43892626146237 728.5,308.5" stroke="#ffffff" stroke-linecap="round" stroke-width="1" /><polygon clip-path="url(#border_clip)" fill="#ffffff" fill-rule="evenodd" points="355.5,504.5 359.5,504.5 356.26393202250017,506.8511410091699 357.5,503.0469149439893 358.73606797749983,506.8511410091699 355.5,504.5" stroke-width="0" /><polyline clip-path="url(#border_clip)" fill="none" points="355.5,504.5 359.5,504.5 356.26393202250017,506.8511410091699 357.5,503.0469149439893 358.73606797749983,506.8511410091699 355.5,504.5" stroke="#ffffff" stroke-linecap="round" stroke-width="1" /><polygon clip-path="url(#border_clip)" fill="#ffffff" fill-rule="evenodd" points="820.5,880.5 824.5,880.5 821.2639320225003,882.8511410091699 822.5,879.0469149439893 823.7360679774997,882.8511410091699 820.5,880.5" stroke-width="0" /><polyline clip-path="url(#border_clip)" fill="none" points="820.5,880.5 824.5,880.5 821.2639320225003,882.8511410091699 822.5,879.0469149439893 823.7360679774997,882.8511410091699 820.5,880.5" stroke="#ffffff" stroke-linecap="round" stroke-width="1" /><polygon clip-path="url(#border_clip)" fill="#ffffff" fill-rule="evenodd" points="896.5,361.5 903.5,361.5 897.8368810393754,365.6144967660473 900.0,358.95710115198125 902.1631189606246,365.6144967660473 896.5,361.5" stroke-width="0" /><polyline clip-path="url(#border_clip)" fill="none" points="896.5,361.5 903.5,361.5 897.8368810393754,365.6144967660473 900.0,358.95710115198125 902.1631189606246,365.6144967660473 896.5,361.5" stroke="#ffffff" stroke-linecap="round" stroke-width="1" /><polygon clip-path="url(#border_clip)" fill="#ffffff" fill-rule="evenodd" points="911.5,855.5 917.5,855.5 912.6458980337503,859.0267115137549 914.5,853.3203724159839 916.3541019662497,859.0267115137549 911.5,855.5" stroke-width="0" /><polyline clip-path="url(#border_clip)" fill="none" points="911.5,855.5 917.5,855.5 912.6458980337503,859.0267115137549 914.5,853.3203724159839 916.3541019662497,859.0267115137549 911.5,855.5" stroke="#ffffff" stroke-linecap="round" stroke-width="1" /><polygon clip-path="url(#border_clip)" fill="#ffffff" fill-rule="evenodd" points="366.5,629.5 369.5,629.5 367.07294901687516,631.2633557568774 368.0,628.410186207992 368.92705098312484,631.2633557568774 366.5,629.5" stroke-width="0" /><polyline clip-path="url(#border_clip)" fill="none" points="366.5,629.5 369.5,629.5 367.07294901687516,631.2633557568774 368.0,628.410186207992 368.92705098312484,631.2633557568774 366.5,629.5" stroke="#ffffff" stroke-linecap="round" stroke-width="1" /><polygon clip-path="url(#border_clip)" fill="#ffffff" fill-rule="evenodd" points="650.5,287.5 655.5,287.5 651.4549150281252,290.43892626146237 653.0,285.6836436799866 654.5450849718748,290.43892626146237 650.5,287.5" stroke-width="0" /><polyline clip-path="url(#border_clip)" fill="none" points="650.5,287.5 655.5,287.5 651.4549150281252,290.43892626146237 653.0,285.6836436799866 654.5450849718748,290.43892626146237 650.5,287.5" stroke="#ffffff" stroke-linecap="round" stroke-width="1" /><polygon clip-path="url(#border_clip)" fill="#ffffff" fill-rule="evenodd" points="731.5,745.5 734.5,745.5 732.0729490168751,747.2633557568774 733.0,744.410186207992 733.9270509831248,747.2633557568774 731.5,745.5" stroke-width="0" /><polyline clip-path="url(#border_clip)" fill="none" points="731.5,745.5 734.5,745.5 732.0729490168751,747.2633557568774 733.0,744.410186207992 733.9270509831248,747.2633557568774 731.5,745.5" stroke="#ffffff" stroke-linecap="round" stroke-width="1" /><polygon clip-path="url(#border_clip)" fill="#ffffff" fill-rule="evenodd" points="157.5,124.5 165.5,124.49999999999994 159.02786404500046,129.20228201833976 161.5,121.59382988797853 163.9721359549996,129.20228201833976 157.5,124.5" stroke-width="0" /><polyline clip-path="url(#border_clip)" fill="none" points="157.5,124.5 165.5,124.49999999999994 159.02786404500046,129.20228201833976 161.5,121.59382988797853 163.9721359549996,129.20228201833976 157.5,124.5" stroke="#ffffff" stroke-linecap="round" stroke-width="1" /><polygon clip-path="url(#border_clip)" fill="#ffffff" fill-rule="evenodd" points="188.5,887.5 193.5,887.5 189.4549150281253,890.4389262614623 191.0,885.6836436799865 192.54508497187476,890.4389262614623 188.5,887.5" stroke-width="0" /><polyline clip-path="url(#border_clip)" fill="none" points="188.5,887.5 193.5,887.5 189.4549150281253,890.4389262614623 191.0,885.6836436799865 192.54508497187476,890.4389262614623 188.5,887.5" stroke="#ffffff" stroke-linecap="round" stroke-width="1" /><polygon clip-path="url(#border_clip)" fill="#ffffff" fill-rule="evenodd" points="633.5,635.5 639.5,635.5 634.6458980337503,639.0267115137549 636.5,633.3203724159839 638.3541019662497,639.0267115137548 633.5,635.5" stroke-width="0" /><polyline clip-path="url(#border_clip)" fill="none" points="633.5,635.5 639.5,635.5 634.6458980337503,639.0267115137549 636.5,633.3203724159839 638.3541019662497,639.0267115137548 633.5,635.5" stroke="#ffffff" stroke-linecap="round" stroke-width="1" /><polygon clip-path="url(#border_clip)" fill="#ffffff" fill-rule="evenodd" points="468.5,824.5 471.5,824.5 469.07294901687516,826.2633557568774 470.0,823.410186207992 470.92705098312484,826.2633557568774 468.5,824.5" stroke-width="0" /><polyline clip-path="url(#border_clip)" fill="none" points="468.5,824.5 471.5,824.5 469.07294901687516,826.2633557568774 470.0,823.410186207992 470.92705098312484,826.2633557568774 468.5,824.5" stroke="#ffffff" stroke-linecap="round" stroke-width="1" /><polygon clip-path="url(#border_clip)" fill="#ffffff" fill-rule="evenodd" points="831.5,180.5 835.5,180.49999999999994 832.2639320225003,182.85114100916985 833.5,179.04691494398924 834.7360679774998,182.85114100916985 831.5,180.5" stroke-width="0" /><polyline clip-path="url(#border_clip)" fill="none" points="831.5,180.5 835.5,180.49999999999994 832.2639320225003,182.85114100916985 833.5,179.04691494398924 834.7360679774998,182.85114100916985 831.5,180.5" stroke="#ffffff" stroke-linecap="round" stroke-width="1" /><polygon clip-path="url(#border_clip)" fill="#ffffff" fill-rule="evenodd" points="851.5,898.5 856.5,898.5 852.4549150281252,901.4389262614624 854.0,896.6836436799865 855.5450849718748,901.4389262614623 851.5,898.5" stroke-width="0" /><polyline clip-path="url(#border_clip)" fill="none" points="851.5,898.5 856.5,898.5 852.4549150281252,901.4389262614624 854.0,896.6836436799865 855.5450849718748,901.4389262614623 851.5,898.5" stroke="#ffffff" stroke-linecap="round" stroke-width="1" /><polygon clip-path="url(#border_clip)" fill="#ffffff" fill-rule="evenodd" points="179.5,712.5 183.5,712.5 180.26393202250023,714.8511410091699 181.5,711.0469149439893 182.73606797749983,714.8511410091699 179.5,712.5" stroke-width="0" /><polyline clip-path="url(#border_clip)" fill="none" points="179.5,712.5 183.5,712.5 180.26393202250023,714.8511410091699 181.5,711.0469149439893 182.73606797749983,714.8511410091699 179.5,712.5" stroke="#ffffff" stroke-linecap="round" stroke-width="1" /><polygon clip-path="url(#border_clip)" fill="#ffffff" fill-rule="evenodd" points="838.5,445.5 842.5,445.49999999999994 839.2639320225003,447.85114100916985 840.5,444.04691494398924 841.7360679774998,447.85114100916985 838.5,445.5" stroke-width="0" /><polyline clip-path="url(#border_clip)" fill="none" points="838.5,445.5 842.5,445.49999999999994 839.2639320225003,447.85114100916985 840.5,444.04691494398924 841.7360679774998,447.85114100916985 838.5,445.5" stroke="#ffffff" stroke-linecap="round" stroke-width="1" /><polygon clip-path="url(#border_clip)" fill="#ffffff" fill-rule="evenodd" points="266.5,284.5 271.5,284.49999999999994 267.4549150281253,287.43892626146237 269.0,282.6836436799865 270.54508497187476,287.43892626146226 266.5,284.5" stroke-width="0" /><polyline clip-path="url(#border_clip)" fill="none" points="266.5,284.5 271.5,284.49999999999994 267.4549150281253,287.43892626146237 269.0,282.6836436799865 270.54508497187476,287.43892626146226 266.5,284.5" stroke="#ffffff" stroke-linecap="round" stroke-width="1" /><polygon clip-path="url(#border_clip)" fill="#ffffff" fill-rule="evenodd" points="362.5,620.5 367.5,620.5 363.4549150281253,623.4389262614624 365.0,618.6836436799865 366.54508497187476,623.4389262614623 362.5,620.5" stroke-width="0" /><polyline clip-path="url(#border_clip)" fill="none" points="362.5,620.5 367.5,620.5 363.4549150281253,623.4389262614624 365.0,618.6836436799865 366.54508497187476,623.4389262614623 362.5,620.5" stroke="#ffffff" stroke-linecap="round" stroke-width="1" /><polygon clip-path="url(#border_clip)" fill="#ffffff" fill-rule="evenodd" points="112.5,420.5 119.5,420.4999999999999 113.83688103937544,424.6144967660473 116.0,417.9571011519812 118.16311896062473,424.61449676604724 112.50000000000006,420.5" stroke-width="0" /><polyline clip-path="url(#border_clip)" fill="none" points="112.5,420.5 119.5,420.4999999999999 113.83688103937544,424.6144967660473 116.0,417.9571011519812 118.16311896062473,424.61449676604724 112.50000000000006,420.5" stroke="#ffffff" stroke-linecap="round" stroke-width="1" /><polygon clip-path="url(#border_clip)" fill="#ffffff" fill-rule="evenodd" points="678.5,806.5 685.5,806.4999999999999 679.8368810393754,810.6144967660473 682.0,803.9571011519812 684.1631189606247,810.6144967660473 678.5,806.5" stroke-width="0" /><polyline clip-path="url(#border_clip)" fill="none" points="678.5,806.5 685.5,806.4999999999999 679.8368810393754,810.6144967660473 682.0,803.9571011519812 684.1631189606247,810.6144967660473 678.5,806.5" stroke="#ffffff" stroke-linecap="round" stroke-width="1" /><polygon clip-path="url(#border_clip)" fill="#ffffff" fill-rule="evenodd" points="787.5,185.5 793.5,185.4999999999999 788.6458980337504,189.02671151375478 790.5,183.32037241598385 792.3541019662497,189.02671151375472 787.5,185.49999999999994" stroke-width="0" /><polyline clip-path="url(#border_clip)" fill="none" points="787.5,185.5 793.5,185.4999999999999 788.6458980337504,189.02671151375478 790.5,183.32037241598385 792.3541019662497,189.02671151375472 787.5,185.49999999999994" stroke="#ffffff" stroke-linecap="round" stroke-width="1" /><polygon clip-path="url(#border_clip)" fill="#ffffff" fill-rule="evenodd" points="304.5,150.5 311.5,150.4999999999999 305.83688103937544,154.6144967660473 308.0,147.9571011519812 310.16311896062473,154.61449676604724 304.5,150.5" stroke-width="0" /><polyline clip-path="url(#border_clip)" fill="none" points="304.5,150.5 311.5,150.4999999999999 305.83688103937544,154.6144967660473 308.0,147.9571011519812 310.16311896062473,154.61449676604724 304.5,150.5" stroke="#ffffff" stroke-linecap="round" stroke-width="1" /><polygon clip-path="url(#border_clip)" fill="#ffffff" fill-rule="evenodd" points="149.5,899.5 157.5,899.4999999999999 151.0278640450005,904.2022820183397 153.49999999999994,896.5938298879785 155.97213595499966,904.2022820183397 149.5,899.5" stroke-width="0" /><polyline clip-path="url(#border_clip)" fill="none" points="149.5,899.5 157.5,899.4999999999999 151.0278640450005,904.2022820183397 153.49999999999994,896.5938298879785 155.97213595499966,904.2022820183397 149.5,899.5" stroke="#ffffff" stroke-linecap="round" stroke-width="1" /><polygon clip-path="url(#border_clip)" fill="#ffffff" fill-rule="evenodd" points="141.5,314.5 147.5,314.4999999999999 142.64589803375037,318.02671151375483 144.49999999999994,312.3203724159839 146.35410196624974,318.0267115137548 141.5,314.5" stroke-width="0" /><polyline clip-path="url(#border_clip)" fill="none" points="141.5,314.5 147.5,314.4999999999999 142.64589803375037,318.02671151375483 144.49999999999994,312.3203724159839 146.35410196624974,318.0267115137548 141.5,314.5" stroke="#ffffff" stroke-linecap="round" stroke-width="1" /><polygon clip-path="url(#border_clip)" fill="#ffffff" fill-rule="evenodd" points="855.5,648.5 861.5,648.4999999999999 856.6458980337504,652.0267115137548 858.5,646.3203724159839 860.3541019662498,652.0267115137548 855.5,648.5" stroke-width="0" /><polyline clip-path="url(#border_clip)" fill="none" points="855.5,648.5 861.5,648.4999999999999 856.6458980337504,652.0267115137548 858.5,646.3203724159839 860.3541019662498,652.0267115137548 855.5,648.5" stroke="#ffffff" stroke-linecap="round" stroke-width="1" /><polygon clip-path="url(#border_clip)" fill="#ffffff" fill-rule="evenodd" points="132.5,560.5 139.5,560.4999999999999 133.83688103937544,564.6144967660473 135.99999999999994,557.9571011519812 138.16311896062467,564.6144967660472 132.49999999999994,560.5" stroke-width="0" /><polyline clip-path="url(#border_clip)" fill="none" points="132.5,560.5 139.5,560.4999999999999 133.83688103937544,564.6144967660473 135.99999999999994,557.9571011519812 138.16311896062467,564.6144967660472 132.49999999999994,560.5" stroke="#ffffff" stroke-linecap="round" stroke-width="1" /><polygon clip-path="url(#border_clip)" fill="#ffffff" fill-rule="evenodd" points="857.5,774.5 864.5,774.4999999999999 858.8368810393754,778.6144967660473 861.0,771.9571011519812 863.1631189606247,778.6144967660473 857.5,774.5" stroke-width="0" /><polyline clip-path="url(#border_clip)" fill="none" points="857.5,774.5 864.5,774.4999999999999 858.8368810393754,778.6144967660473 861.0,771.9571011519812 863.1631189606247,778.6144967660473 857.5,774.5" stroke="#ffffff" stroke-linecap="round" stroke-width="1" /><polygon clip-path="url(#border_clip)" fill="#ffffff" fill-rule="evenodd" points="145.5,785.5 151.5,785.4999999999999 146.64589803375037,789.0267115137549 148.49999999999994,783.3203724159839 150.35410196624974,789.0267115137547 145.5,785.5" stroke-width="0" /><polyline clip-path="url(#border_clip)" fill="none" points="145.5,785.5 151.5,785.4999999999999 146.64589803375037,789.0267115137549 148.49999999999994,783.3203724159839 150.35410196624974,789.0267115137547 145.5,785.5" stroke="#ffffff" stroke-linecap="round" stroke-width="1" /><polygon clip-path="url(#border_clip)" fill="#ffffff" fill-rule="evenodd" points="223.5,142.5 231.5,142.49999999999983 225.0278640450005,147.20228201833976 227.49999999999994,139.59382988797847 229.97213595499966,147.20228201833964 223.5,142.5" stroke-width="0" /><polyline clip-path="url(#border_clip)" fill="none" points="223.5,142.5 231.5,142.49999999999983 225.0278640450005,147.20228201833976 227.49999999999994,139.59382988797847 229.97213595499966,147.20228201833964 223.5,142.5" stroke="#ffffff" stroke-linecap="round" stroke-width="1" /><polygon clip-path="url(#border_clip)" fill="#ffffff" fill-rule="evenodd" points="854.5,887.5 862.5,887.4999999999998 856.0278640450006,892.2022820183397 858.5,884.5938298879785 860.9721359549997,892.2022820183397 854.5,887.5" stroke-width="0" /><polyline clip-path="url(#border_clip)" fill="none" points="854.5,887.5 862.5,887.4999999999998 856.0278640450006,892.2022820183397 858.5,884.5938298879785 860.9721359549997,892.2022820183397 854.5,887.5" stroke="#ffffff" stroke-linecap="round" stroke-width="1" /><polygon clip-path="url(#border_clip)" fill="#ffffff" fill-rule="evenodd" points="364.5,335.5 368.5,335.4999999999999 365.2639320225003,337.85114100916985 366.5,334.04691494398924 367.73606797749983,337.85114100916985 364.5,335.5" stroke-width="0" /><polyline clip-path="url(#border_clip)" fill="none" points="364.5,335.5 368.5,335.4999999999999 365.2639320225003,337.85114100916985 366.5,334.04691494398924 367.73606797749983,337.85114100916985 364.5,335.5" stroke="#ffffff" stroke-linecap="round" stroke-width="1" /><polygon clip-path="url(#border_clip)" fill="#ffffff" fill-rule="evenodd" points="408.5,501.5 414.5,501.4999999999999 409.6458980337504,505.02671151375483 411.49999999999994,499.32037241598385 413.3541019662498,505.0267115137547 408.5,501.5" stroke-width="0" /><polyline clip-path="url(#border_clip)" fill="none" points="408.5,501.5 414.5,501.4999999999999 409.6458980337504,505.02671151375483 411.49999999999994,499.32037241598385 413.3541019662498,505.0267115137547 408.5,501.5" stroke="#ffffff" stroke-linecap="round" stroke-width="1" /><polygon clip-path="url(#border_clip)" fill="#ffffff" fill-rule="evenodd" points="649.5,189.5 654.5,189.4999999999999 650.4549150281254,192.43892626146237 652.0,187.68364367998657 653.5450849718748,192.4389262614623 649.5,189.50000000000006" stroke-width="0" /><polyline clip-path="url(#border_clip)" fill="none" points="649.5,189.5 654.5,189.4999999999999 650.4549150281254,192.43892626146237 652.0,187.68364367998657 653.5450849718748,192.4389262614623 649.5,189.50000000000006" stroke="#ffffff" stroke-linecap="round" stroke-width="1" /><polygon clip-path="url(#border_clip)" fill="#ffffff" fill-rule="evenodd" points="239.5,163.5 246.5,163.49999999999983 240.83688103937544,167.6144967660473 242.9999999999999,160.9571011519812 245.16311896062467,167.61449676604724 239.49999999999994,163.50000000000006" stroke-width="0" /><polyline clip-path="url(#border_clip)" fill="none" points="239.5,163.5 246.5,163.49999999999983 240.83688103937544,167.6144967660473 242.9999999999999,160.9571011519812 245.16311896062467,167.61449676604724 239.49999999999994,163.50000000000006" stroke="#ffffff" stroke-linecap="round" stroke-width="1" /><polygon clip-path="url(#border_clip)" fill="#ffffff" fill-rule="evenodd" points="689.5,558.5 694.5,558.4999999999999 690.4549150281254,561.4389262614624 692.0,556.6836436799865 693.5450849718748,561.4389262614623 689.5,558.5" stroke-width="0" /><polyline clip-path="url(#border_clip)" fill="none" points="689.5,558.5 694.5,558.4999999999999 690.4549150281254,561.4389262614624 692.0,556.6836436799865 693.5450849718748,561.4389262614623 689.5,558.5" stroke="#ffffff" stroke-linecap="round" stroke-width="1" /><polygon clip-path="url(#border_clip)" fill="#ffffff" fill-rule="evenodd" points="842.5,370.5 849.5,370.49999999999983 843.8368810393755,374.6144967660473 846.0,367.9571011519812 848.1631189606247,374.6144967660472 842.5,370.5" stroke-width="0" /><polyline clip-path="url(#border_clip)" fill="none" points="842.5,370.5 849.5,370.49999999999983 843.8368810393755,374.6144967660473 846.0,367.9571011519812 848.1631189606247,374.6144967660472 842.5,370.5" stroke="#ffffff" stroke-linecap="round" stroke-width="1" /><polygon clip-path="url(#border_clip)" fill="#ffffff" fill-rule="evenodd" points="238.5,838.5 243.5,838.4999999999999 239.45491502812536,841.4389262614624 240.99999999999994,836.6836436799865 242.54508497187481,841.4389262614623 238.5,838.5" stroke-width="0" /><polyline clip-path="url(#border_clip)" fill="none" points="238.5,838.5 243.5,838.4999999999999 239.45491502812536,841.4389262614624 240.99999999999994,836.6836436799865 242.54508497187481,841.4389262614623 238.5,838.5" stroke="#ffffff" stroke-linecap="round" stroke-width="1" /><polygon clip-path="url(#border_clip)" fill="#ffffff" fill-rule="evenodd" points="692.5,686.5 699.5,686.4999999999998 693.8368810393755,690.6144967660473 695.9999999999999,683.9571011519811 698.1631189606247,690.6144967660472 692.5,686.5" stroke-width="0" /><polyline clip-path="url(#border_clip)" fill="none" points="692.5,686.5 699.5,686.4999999999998 693.8368810393755,690.6144967660473 695.9999999999999,683.9571011519811 698.1631189606247,690.6144967660472 692.5,686.5" stroke="#ffffff" stroke-linecap="round" stroke-width="1" /><polygon clip-path="url(#border_clip)" fill="#ffffff" fill-rule="evenodd" points="628.5,653.5 634.5,653.4999999999998 629.6458980337504,657.0267115137548 631.5,651.3203724159838 633.3541019662498,657.0267115137547 628.5,653.5" stroke-width="0" /><polyline clip-path="url(#border_clip)" fill="none" points="628.5,653.5 634.5,653.4999999999998 629.6458980337504,657.0267115137548 631.5,651.3203724159838 633.3541019662498,657.0267115137547 628.5,653.5" stroke="#ffffff" stroke-linecap="round" stroke-width="1" /><polygon clip-path="url(#border_clip)" fill="#ffffff" fill-rule="evenodd" points="689.5,871.5 697.5,871.4999999999998 691.0278640450006,876.2022820183397 693.4999999999999,868.5938298879785 695.9721359549997,876.2022820183397 689.5,871.5" stroke-width="0" /><polyline clip-path="url(#border_clip)" fill="none" points="689.5,871.5 697.5,871.4999999999998 691.0278640450006,876.2022820183397 693.4999999999999,868.5938298879785 695.9721359549997,876.2022820183397 689.5,871.5" stroke="#ffffff" stroke-linecap="round" stroke-width="1" /><polygon clip-path="url(#border_clip)" fill="#ffffff" fill-rule="evenodd" points="136.5,709.5 140.5,709.4999999999999 137.26393202250028,711.8511410091699 138.49999999999994,708.0469149439892 139.73606797749983,711.8511410091699 136.49999999999994,709.5" stroke-width="0" /><polyline clip-path="url(#border_clip)" fill="none" points="136.5,709.5 140.5,709.4999999999999 137.26393202250028,711.8511410091699 138.49999999999994,708.0469149439892 139.73606797749983,711.8511410091699 136.49999999999994,709.5" stroke="#ffffff" stroke-linecap="round" stroke-width="1" /><polygon clip-path="url(#border_clip)" fill="#ffffff" fill-rule="evenodd" points="886.5,179.5 891.5,179.49999999999983 887.4549150281254,182.4389262614623 889.0,177.68364367998652 890.5450849718748,182.43892626146226 886.5,179.5" stroke-width="0" /><polyline clip-path="url(#border_clip)" fill="none" points="886.5,179.5 891.5,179.49999999999983 887.4549150281254,182.4389262614623 889.0,177.68364367998652 890.5450849718748,182.43892626146226 886.5,179.5" stroke="#ffffff" stroke-linecap="round" stroke-width="1" /><polygon clip-path="url(#border_clip)" fill="#ffffff" fill-rule="evenodd" points="869.5,381.5 877.5,381.4999999999998 871.0278640450006,386.20228201833976 873.5,378.5938298879785 875.9721359549998,386.2022820183396 869.5,381.5" stroke-width="0" /><polyline clip-path="url(#border_clip)" fill="none" points="869.5,381.5 877.5,381.4999999999998 871.0278640450006,386.20228201833976 873.5,378.5938298879785 875.9721359549998,386.2022820183396 869.5,381.5" stroke="#ffffff" stroke-linecap="round" stroke-width="1" /><polygon clip-path="url(#border_clip)" fill="#ffffff" fill-rule="evenodd" points="249.5,539.5 255.5,539.4999999999998 250.64589803375043,543.0267115137548 252.49999999999994,537.3203724159838 254.3541019662498,543.0267115137547 249.5,539.5" stroke-width="0" /><polyline clip-path="url(#border_clip)" fill="none" points="249.5,539.5 255.5,539.4999999999998 250.64589803375043,543.0267115137548 252.49999999999994,537.3203724159838 254.3541019662498,543.0267115137547 249.5,539.5" stroke="#ffffff" stroke-linecap="round" stroke-width="1" /><polygon clip-path="url(#border_clip)" fill="#ffffff" fill-rule="evenodd" points="194.5,746.5 202.5,746.4999999999998 196.02786404500057,751.2022820183397 198.4999999999999,743.5938298879785 200.97213595499971,751.2022820183396 194.5,746.5" stroke-width="0" /><polyline clip-path="url(#border_clip)" fill="none" points="194.5,746.5 202.5,746.4999999999998 196.02786404500057,751.2022820183397 198.4999999999999,743.5938298879785 200.97213595499971,751.2022820183396 194.5,746.5" stroke="#ffffff" stroke-linecap="round" stroke-width="1" /><polygon clip-path="url(#border_clip)" fill="#ffffff" fill-rule="evenodd" points="264.5,434.5 269.5,434.49999999999983 265.45491502812536,437.43892626146237 266.99999999999994,432.6836436799865 268.54508497187487,437.43892626146226 264.5,434.5" stroke-width="0" /><polyline clip-path="url(#border_clip)" fill="none" points="264.5,434.5 269.5,434.49999999999983 265.45491502812536,437.43892626146237 266.99999999999994,432.6836436799865 268.54508497187487,437.43892626146226 264.5,434.5" stroke="#ffffff" stroke-linecap="round" stroke-width="1" /><polygon clip-path="url(#border_clip)" fill="#ffffff" fill-rule="evenodd" points="812.5,372.5 817.5,372.49999999999983 813.4549150281254,375.4389262614623 815.0,370.6836436799865 816.5450849718748,375.4389262614622 812.5,372.5" stroke-width="0" /><polyline clip-path="url(#border_clip)" fill="none" points="812.5,372.5 817.5,372.49999999999983 813.4549150281254,375.4389262614623 815.0,370.6836436799865 816.5450849718748,375.4389262614622 812.5,372.5" stroke="#ffffff" stroke-linecap="round" stroke-width="1" /><polygon clip-path="url(#border_clip)" fill="#ffffff" fill-rule="evenodd" points="872.5,686.5 876.5,686.4999999999999 873.2639320225003,688.8511410091699 874.5,685.0469149439892 875.7360679774999,688.8511410091697 872.5,686.5" stroke-width="0" /><polyline clip-path="url(#border_clip)" fill="none" points="872.5,686.5 876.5,686.4999999999999 873.2639320225003,688.8511410091699 874.5,685.0469149439892 875.7360679774999,688.8511410091697 872.5,686.5" stroke="#ffffff" stroke-linecap="round" stroke-width="1" /><polygon clip-path="url(#border_clip)" fill="#ffffff" fill-rule="evenodd" points="828.5,902.5 832.5,902.4999999999999 829.2639320225003,904.8511410091699 830.5,901.0469149439892 831.7360679774999,904.8511410091699 828.5,902.5" stroke-width="0" /><polyline clip-path="url(#border_clip)" fill="none" points="828.5,902.5 832.5,902.4999999999999 829.2639320225003,904.8511410091699 830.5,901.0469149439892 831.7360679774999,904.8511410091699 828.5,902.5" stroke="#ffffff" stroke-linecap="round" stroke-width="1" /><polygon clip-path="url(#border_clip)" fill="#ffffff" fill-rule="evenodd" points="374.5,650.5 377.5,650.4999999999999 375.0729490168752,652.2633557568774 375.99999999999994,649.410186207992 376.9270509831249,652.2633557568773 374.5,650.5" stroke-width="0" /><polyline clip-path="url(#border_clip)" fill="none" points="374.5,650.5 377.5,650.4999999999999 375.0729490168752,652.2633557568774 375.99999999999994,649.410186207992 376.9270509831249,652.2633557568773 374.5,650.5" stroke="#ffffff" stroke-linecap="round" stroke-width="1" /><polyline clip-path="url(#border_clip)" fill="none" points="612.5,473.5 662.5,473.4999999999982 612.5,473.5 655.8012701892228,498.49999999999847 612.5,473.5 637.5000000000016,516.801270189221 612.5,473.5 612.5000000000018,523.5 612.5,473.5 587.5000000000016,516.8012701892228 612.5,473.5 569.198729810779,498.5000000000016 612.5,473.5 562.5,473.5000000000018 612.5,473.5 569.1987298107772,448.5000000000016 612.5,473.5 587.4999999999984,430.198729810779 612.5,473.5 612.4999999999982,423.5 612.5,473.5 637.4999999999984,430.1987298107772 612.5,473.5 655.801270189221,448.4999999999984 612.5,473.5" stroke="#33ff57" stroke-linecap="round" stroke-width="3" /><polyline clip-path="url(#border_clip)" fill="none" points="578.5,482.5 628.5,482.4999999999982 578.5,482.5 621.8012701892228,507.4999999999984 578.5,482.5 603.5000000000016,525.801270189221 578.5,482.5 578.5000000000018,532.5 578.5,482.5 553.5000000000016,525.8012701892228 578.5,482.5 535.198729810779,507.5000000000016 578.5,482.5 528.5,482.5000000000019 578.5,482.5 535.1987298107772,457.5000000000016 578.5,482.5 553.4999999999984,439.198729810779 578.5,482.5 578.4999999999982,432.5 578.5,482.5 603.4999999999984,439.1987298107772 578.5,482.5 621.801270189221,457.4999999999984 578.5,482.5" stroke="#33ff57" stroke-linecap="round" stroke-width="3" /><polyline clip-path="url(#border_clip)" fill="none" points="390.5,499.5 440.5,499.4999999999981 390.5,499.5 433.80127018922286,524.4999999999984 390.5,499.5 415.50000000000165,542.801270189221 390.5,499.5 390.5000000000019,549.5 390.5,499.5 365.50000000000165,542.8012701892229 390.5,499.5 347.198729810779,524.5000000000016 390.5,499.5 340.5,499.50000000000193 390.5,499.5 347.1987298107771,474.50000000000165 390.5,499.5 365.4999999999983,456.198729810779 390.5,499.5 390.49999999999807,449.5 390.5,499.5 415.4999999999983,456.19872981077714 390.5,499.5 433.80127018922093,474.49999999999835 390.5,499.5" stroke="#3357ff" stroke-linecap="round" stroke-width="3" /><polyline clip-path="url(#border_clip)" fill="none" points="580.5,600.5 630.5,600.4999999999981 580.5,600.5 623.8012701892229,625.4999999999983 580.5,600.5 605.5000000000017,643.801270189221 580.5,600.5 580.5000000000019,650.5 580.5,600.5 555.5000000000017,643.8012701892229 580.5,600.5 537.198729810779,625.5000000000017 580.5,600.5 530.5,600.500000000002 580.5,600.5 537.1987298107771,575.5000000000017 580.5,600.5 555.4999999999983,557.1987298107791 580.5,600.5 580.4999999999981,550.5 580.5,600.5 605.4999999999983,557.1987298107771 580.5,600.5 623.801270189221,575.4999999999983 580.5,600.5" stroke="#ff33f6" stroke-linecap="round" stroke-width="3" /><polyline clip-path="url(#border_clip)" fill="none" points="399.5,305.5 449.5,305.499999999998 399.5,305.5 442.8012701892229,330.4999999999983 399.5,305.5 424.5000000000017,348.80127018922093 399.5,305.5 399.500000000002,355.5 399.5,305.5 374.5000000000017,348.8012701892229 399.5,305.5 356.19872981077907,330.5000000000017 399.5,305.5 349.5,305.50000000000205 399.5,305.5 356.1987298107771,280.50000000000176 399.5,305.5 374.49999999999824,262.19872981077907 399.5,305.5 399.49999999999795,255.5 399.5,305.5 424.49999999999824,262.1987298107771 399.5,305.5 442.8012701892209,280.49999999999824 399.5,305.5" stroke="#ff33f6" stroke-linecap="round" stroke-width="3" /><polyline clip-path="url(#border_clip)" fill="none" points="265.5,568.5 315.5,568.499999999998 265.5,568.5 308.8012701892229,593.4999999999982 265.5,568.5 290.50000000000176,611.8012701892209 265.5,568.5 265.50000000000205,618.5 265.5,568.5 240.50000000000176,611.8012701892229 265.5,568.5 222.19872981077907,593.5000000000018 265.5,568.5 215.5,568.500000000002 265.5,568.5 222.19872981077702,543.5000000000018 265.5,568.5 240.49999999999818,525.1987298107791 265.5,568.5 265.4999999999979,518.5 265.5,568.5 290.4999999999982,525.1987298107771 265.5,568.5 308.8012701892209,543.4999999999982 265.5,568.5" stroke="#ffc300" stroke-linecap="round" stroke-width="3" /><polyline clip-path="url(#border_clip)" fill="none" points="268.5,565.5 318.5,565.499999999998 268.5,565.5 311.8012701892229,590.4999999999982 268.5,565.5 293.5000000000018,608.8012701892209 268.5,565.5 268.5000000000021,615.5 268.5,565.5 243.50000000000182,608.8012701892229 268.5,565.5 225.19872981077913,590.5000000000018 268.5,565.5 218.5,565.500000000002 268.5,565.5 225.19872981077697,540.5000000000018 268.49999999999994,565.5 243.49999999999812,522.1987298107791 268.49999999999994,565.5 268.49999999999784,515.5 268.49999999999994,565.5 293.49999999999807,522.198729810777 268.49999999999994,565.5 311.8012701892208,540.4999999999982 268.49999999999994,565.5" stroke="#ff33f6" stroke-linecap="round" stroke-width="3" /><polyline clip-path="url(#border_clip)" fill="none" points="746.5,413.5 796.5,413.49999999999784 746.5,413.5 789.801270189223,438.4999999999981 746.5,413.5 771.5000000000018,456.8012701892209 746.5,413.5 746.500000000002,463.5 746.5,413.5 721.5000000000018,456.801270189223 746.5,413.5 703.1987298107791,438.5000000000018 746.5,413.5 696.5,413.50000000000216 746.5,413.5 703.198729810777,388.5000000000019 746.5,413.5 721.4999999999982,370.1987298107791 746.5,413.5 746.4999999999978,363.5 746.5,413.5 771.4999999999982,370.19872981077697 746.5,413.5 789.8012701892209,388.49999999999807 746.5,413.5" stroke="#3357ff" stroke-linecap="round" stroke-width="3" /><polygon clip-path="url(#border_clip)" fill="#e0e0e0" fill-rule="evenodd" points="362.5,562.5 662.5,562.4999999999869 666.3268343236508,561.7387953250997 669.5710678118653,559.5710678118521 671.7387953251125,556.3268343236375 672.4999999999995,552.4999999999866 672.4999999999952,452.4999999999866 671.7387953251078,448.6731656763357 669.5710678118603,445.4289321881212 666.3268343236457,443.26120467487397 662.4999999999948,442.499999999987 362.49999999999477,442.50000000000006 358.67316567634396,443.2612046748873 355.42893218812947,445.42893218813487 353.26120467488215,448.6731656763495 352.4999999999952,452.50000000000045 352.49999999999955,552.5000000000005 353.26120467488687,556.3268343236513 355.4289321881344,559.5710678118658 358.6731656763491,561.7387953251131 362.5,562.5" stroke-width="0" /><polyline clip-path="url(#border_clip)" fill="none" points="362.5,562.5 662.5,562.4999999999869 666.3268343236508,561.7387953250997 669.5710678118653,559.5710678118521 671.7387953251125,556.3268343236375 672.4999999999995,552.4999999999866 672.4999999999952,452.4999999999866 671.7387953251078,448.6731656763357 669.5710678118603,445.4289321881212 666.3268343236457,443.26120467487397 662.4999999999948,442.499999999987 362.49999999999477,442.50000000000006 358.67316567634396,443.2612046748873 355.42893218812947,445.42893218813487 353.26120467488215,448.6731656763495 352.4999999999952,452.50000000000045 352.49999999999955,552.5000000000005 353.26120467488687,556.3268343236513 355.4289321881344,559.5710678118658 358.6731656763491,561.7387953251131 362.5,562.5" stroke="#2a2a2a" stroke-linecap="round" stroke-width="5" /><polygon clip-path="url(#border_clip)" fill="#1a1a1a" fill-rule="evenodd" points="382.5,542.5 642.5,542.4999999999887 642.4999999999973,482.4999999999887 382.4999999999974,482.5 382.5,542.5" stroke-width="0" /><polyline clip-path="url(#border_clip)" fill="none" points="382.5,542.5 642.5,542.4999999999887 642.4999999999973,482.4999999999887 382.4999999999974,482.5 382.5,542.5" stroke="black" stroke-linecap="round" stroke-width="5" /><polygon clip-path="url(#border_clip)" fill="black" fill-rule="evenodd" points="412.5,522.5 412.49999999999915,502.5 432.49999999999915,502.49999999999915 432.4999999999983,482.49999999999915 452.4999999999983,482.4999999999983 452.49999999999915,502.4999999999983 472.49999999999915,502.4999999999974 472.5,522.4999999999974 452.5,522.4999999999983 452.50000000000085,542.4999999999983 432.50000000000085,542.4999999999991 432.5,522.4999999999991 412.5,522.5" stroke-width="0" /><polyline clip-path="url(#border_clip)" fill="none" points="412.5,522.5 412.49999999999915,502.5 432.49999999999915,502.49999999999915 432.4999999999983,482.49999999999915 452.4999999999983,482.4999999999983 452.49999999999915,502.4999999999983 472.49999999999915,502.4999999999974 472.5,522.4999999999974 452.5,522.4999999999983 452.50000000000085,542.4999999999983 432.50000000000085,542.4999999999991 432.5,522.4999999999991 412.5,522.5" stroke="black" stroke-linecap="round" stroke-width="5" /><polygon clip-path="url(#border_clip)" fill="black" fill-rule="evenodd" points="492.5,512.5 522.5,512.4999999999987 522.4999999999995,502.4999999999987 492.49999999999955,502.5 492.5,512.5" stroke-width="0" /><polyline clip-path="url(#border_clip)" fill="none" points="492.5,512.5 522.5,512.4999999999987 522.4999999999995,502.4999999999987 492.49999999999955,502.5 492.5,512.5" stroke="black" stroke-linecap="round" stroke-width="5" /><polygon clip-path="url(#border_clip)" fill="black" fill-rule="evenodd" points="532.5,512.5 562.5,512.4999999999987 562.4999999999995,502.4999999999987 532.4999999999995,502.5 532.5,512.5" stroke-width="0" /><polyline clip-path="url(#border_clip)" fill="none" points="532.5,512.5 562.5,512.4999999999987 562.4999999999995,502.4999999999987 532.4999999999995,502.5 532.5,512.5" stroke="black" stroke-linecap="round" stroke-width="5" /><polygon clip-path="url(#border_clip)" fill="#ff0000" fill-rule="evenodd" points="592.5,507.5 599.0082560867634,506.014533018536 604.2274722370203,501.8523470278805 607.1239186827269,495.8378140093441 607.1239186827265,489.1621859906547 604.2274722370194,483.1476529721185 599.0082560867621,478.98546698146345 592.4999999999987,477.5 585.9917439132354,478.985466981464 580.7725277629785,483.1476529721195 577.8760813172719,489.1621859906559 577.8760813172721,495.8378140093454 580.7725277629793,501.85234702788154 585.9917439132365,506.01453301853655 592.5,507.5" stroke-width="0" /><polyline clip-path="url(#border_clip)" fill="none" points="592.5,507.5 599.0082560867634,506.014533018536 604.2274722370203,501.8523470278805 607.1239186827269,495.8378140093441 607.1239186827265,489.1621859906547 604.2274722370194,483.1476529721185 599.0082560867621,478.98546698146345 592.4999999999987,477.5 585.9917439132354,478.985466981464 580.7725277629785,483.1476529721195 577.8760813172719,489.1621859906559 577.8760813172721,495.8378140093454 580.7725277629793,501.85234702788154 585.9917439132365,506.01453301853655 592.5,507.5" stroke="#cc0000" stroke-linecap="round" stroke-width="5" /><polygon clip-path="url(#border_clip)" fill="#ff0000" fill-rule="evenodd" points="632.5,507.5 639.0082560867634,506.014533018536 644.2274722370203,501.8523470278805 647.1239186827269,495.8378140093441 647.1239186827265,489.1621859906547 644.2274722370194,483.1476529721185 639.0082560867621,478.98546698146345 632.4999999999987,477.5 625.9917439132354,478.985466981464 620.7725277629785,483.1476529721195 617.8760813172719,489.1621859906559 617.8760813172721,495.8378140093454 620.7725277629793,501.85234702788154 625.9917439132366,506.01453301853655 632.5,507.5" stroke-width="0" /><polyline clip-path="url(#border_clip)" fill="none" points="632.5,507.5 639.0082560867634,506.014533018536 644.2274722370203,501.8523470278805 647.1239186827269,495.8378140093441 647.1239186827265,489.1621859906547 644.2274722370194,483.1476529721185 639.0082560867621,478.98546698146345 632.4999999999987,477.5 625.9917439132354,478.985466981464 620.7725277629785,483.1476529721195 617.8760813172719,489.1621859906559 617.8760813172721,495.8378140093454 620.7725277629793,501.85234702788154 625.9917439132366,506.01453301853655 632.5,507.5" stroke="#cc0000" stroke-linecap="round" stroke-width="5" /></svg>